<?xml version="1.0" encoding="UTF-8" standalone="no"?><!DOCTYPE svg PUBLIC "-//W3C//DTD SVG 1.1//EN" "http://www.w3.org/Graphics/SVG/1.1/DTD/svg11.dtd"><svg width="100%" height="100%" viewBox="0 0 200 60" version="1.1" xmlns="http://www.w3.org/2000/svg" xmlns:xlink="http://www.w3.org/1999/xlink" xml:space="preserve" xmlns:serif="http://www.serif.com/" style="fill-rule:evenodd;clip-rule:evenodd;stroke-linejoin:round;stroke-miterlimit:2;"><rect id="kawacss-logo" x="0" y="0" width="200" height="60" style="fill:#fff;"/><g><path d="M29.098,12.112l-0.054,10.213c0,4.193 0.108,7.812 0.323,10.858c0.68,-0.501 1.523,-1.147 2.526,-1.935c2.258,-1.792 3.87,-2.992 4.838,-3.601c0.967,-0.61 1.684,-1.111 2.15,-1.505c1.075,-0.861 1.801,-1.291 2.177,-1.291c0.376,0 0.77,0.171 1.183,0.511c0.412,0.341 0.618,0.654 0.618,0.941c0,0.609 -0.78,1.505 -2.339,2.687c-1.558,1.183 -3.117,2.303 -4.676,3.36c-1.559,1.057 -2.338,1.729 -2.338,2.016c0,0.286 0.421,0.878 1.263,1.774c0.842,0.896 1.738,1.8 2.687,2.714c0.95,0.914 1.936,1.846 2.957,2.795c1.021,0.95 1.568,1.461 1.639,1.532c0.072,0.072 0.278,0.26 0.619,0.565c0.34,0.304 0.6,0.546 0.779,0.725c0.179,0.18 0.394,0.413 0.645,0.699c0.502,0.574 0.753,1.057 0.753,1.452c0,0.394 -0.341,0.949 -1.022,1.666c-0.681,0.717 -1.173,1.075 -1.478,1.075c-0.305,0 -0.546,-0.045 -0.726,-0.134c-0.179,-0.09 -0.313,-0.189 -0.403,-0.296c-0.089,-0.108 -0.251,-0.287 -0.484,-0.538l-3.95,-4.139c-3.082,-3.261 -5.591,-5.715 -7.526,-7.364c-0.036,1.326 -0.054,2.365 -0.054,3.118l0.108,5.321l0,0.887c0,0.448 -0.009,0.816 -0.027,1.102c-0.018,0.287 -0.125,0.574 -0.323,0.86c-0.197,0.287 -0.501,0.466 -0.913,0.538c-0.412,0.072 -0.959,0.107 -1.64,0.107c-0.681,0 -1.164,-0.026 -1.451,-0.08c-0.287,-0.054 -0.502,-0.242 -0.645,-0.565c-0.179,-0.358 -0.269,-1.326 -0.269,-2.902l0.215,-21.932l-0.054,-7.686c0,-3.906 0.233,-6.039 0.699,-6.397c0.215,-0.143 0.824,-0.215 1.828,-0.215c1.003,0 1.648,0.179 1.935,0.538c0.287,0.358 0.43,1.2 0.43,2.526Z" style="fill:#4d4e4e;fill-rule:nonzero;"/><path d="M63.554,48.772c-1.075,0 -1.577,-0.592 -1.505,-1.774c0,-0.394 -0.054,-0.591 -0.162,-0.591c-0.286,0.107 -0.86,0.412 -1.72,0.913c-4.264,2.616 -8.009,2.778 -11.234,0.484c-1.469,-1.039 -2.204,-2.473 -2.204,-4.3c0,-2.759 1.281,-4.766 3.843,-6.021c2.563,-1.254 5.743,-1.881 9.541,-1.881c0.681,0 1.183,0.018 1.506,0.054c0,-0.609 0.017,-1.039 0.053,-1.29c0,-2.043 -0.564,-3.575 -1.693,-4.596c-1.129,-1.021 -2.697,-1.532 -4.703,-1.532c-0.968,0 -2.007,0.143 -3.118,0.43c-1.111,0.287 -1.828,0.43 -2.15,0.43c-0.323,0 -0.582,-0.197 -0.78,-0.591c-0.197,-0.395 -0.295,-0.914 -0.295,-1.559c0,-0.645 0.797,-1.156 2.392,-1.532c1.595,-0.376 3.126,-0.565 4.596,-0.565c3.476,0 6.119,0.914 7.928,2.742c1.81,1.827 2.715,4.497 2.715,8.009l0,11.073c0,0.968 -0.179,1.559 -0.538,1.774c-0.358,0.215 -1.182,0.323 -2.472,0.323Zm-1.989,-5.644c0.071,-1.004 0.107,-2.079 0.107,-3.226c0,-1.146 -0.018,-1.791 -0.053,-1.935c-4.946,0.466 -7.956,1.362 -9.031,2.688c-0.573,0.681 -0.86,1.469 -0.86,2.365c0,1.899 1.415,2.849 4.246,2.849c1.434,0 2.715,-0.331 3.844,-0.994c1.129,-0.663 1.711,-1.246 1.747,-1.747Z" style="fill:#4d4e4e;fill-rule:nonzero;"/><path d="M87.259,39.956c-1.075,1.147 -1.792,2.007 -2.15,2.58c-3.046,4.587 -4.928,6.881 -5.644,6.881c-0.18,0 -0.538,-0.287 -1.075,-0.86c-0.538,-0.574 -0.941,-1.111 -1.21,-1.613c-0.269,-0.502 -1.657,-3.306 -4.166,-8.412c-2.508,-5.107 -4.049,-8.278 -4.623,-9.515c-0.573,-1.236 -0.86,-2.042 -0.86,-2.419c0,-0.376 0.475,-0.761 1.425,-1.155c0.95,-0.394 1.55,-0.592 1.801,-0.592l0.43,0c0.501,0.036 1.326,1.416 2.472,4.139c1.075,2.294 2.446,5.241 4.112,8.843c1.667,3.601 2.482,5.402 2.446,5.402l1.29,-1.613c2.616,-3.261 3.942,-4.963 3.978,-5.106c-0.537,-1.362 -0.914,-2.24 -1.129,-2.634c-0.215,-0.394 -0.555,-1.138 -1.021,-2.231c-0.466,-1.093 -0.896,-2.024 -1.29,-2.795c-0.394,-0.77 -0.591,-1.281 -0.591,-1.532c0,-0.251 0.161,-0.484 0.483,-0.699c0.323,-0.215 0.654,-0.403 0.995,-0.564c0.34,-0.161 0.734,-0.341 1.182,-0.538c0.448,-0.197 0.726,-0.304 0.834,-0.322c0.107,-0.018 0.268,0.08 0.483,0.296c0.215,0.215 0.43,0.492 0.645,0.833c0.215,0.34 0.412,0.672 0.592,0.994c0.895,1.613 2.015,3.897 3.359,6.854c1.344,2.956 2.177,4.775 2.5,5.456c0.609,1.541 1.057,2.454 1.344,2.741c0.286,0 0.895,-0.941 1.827,-2.822c0.932,-1.881 1.658,-3.369 2.177,-4.462c0.52,-1.093 1.084,-2.311 1.693,-3.655c0.61,-1.344 1.022,-2.231 1.237,-2.661c0.466,-1.433 1.075,-2.544 1.827,-3.332c0.251,-0.287 0.511,-0.457 0.78,-0.511c0.269,-0.054 0.645,0.027 1.129,0.242c0.483,0.215 0.761,0.412 0.833,0.591c0,0.645 -0.359,1.864 -1.075,3.655c-2.079,4.587 -3.638,7.813 -4.677,9.676c-1.039,1.864 -1.765,3.189 -2.177,3.978c-0.412,0.788 -0.797,1.496 -1.156,2.123c-0.358,0.627 -0.734,1.281 -1.128,1.962c-0.896,1.469 -1.631,2.204 -2.204,2.204c-0.287,0 -1.201,-1.389 -2.742,-4.166c-1.541,-2.777 -2.526,-4.524 -2.956,-5.241Z" style="fill:#4d4e4e;fill-rule:nonzero;"/><path d="M122.951,48.772c-1.075,0 -1.577,-0.592 -1.505,-1.774c0,-0.394 -0.054,-0.591 -0.161,-0.591c-0.287,0.107 -0.86,0.412 -1.72,0.913c-4.265,2.616 -8.01,2.778 -11.235,0.484c-1.469,-1.039 -2.204,-2.473 -2.204,-4.3c0,-2.759 1.281,-4.766 3.844,-6.021c2.562,-1.254 5.742,-1.881 9.541,-1.881c0.681,0 1.182,0.018 1.505,0.054c0,-0.609 0.018,-1.039 0.054,-1.29c0,-2.043 -0.565,-3.575 -1.694,-4.596c-1.128,-1.021 -2.696,-1.532 -4.703,-1.532c-0.967,0 -2.007,0.143 -3.118,0.43c-1.111,0.287 -1.827,0.43 -2.15,0.43c-0.322,0 -0.582,-0.197 -0.779,-0.591c-0.197,-0.395 -0.296,-0.914 -0.296,-1.559c0,-0.645 0.798,-1.156 2.392,-1.532c1.595,-0.376 3.127,-0.565 4.596,-0.565c3.476,0 6.119,0.914 7.929,2.742c1.809,1.827 2.714,4.497 2.714,8.009l0,11.073c0,0.968 -0.179,1.559 -0.537,1.774c-0.359,0.215 -1.183,0.323 -2.473,0.323Zm-1.989,-5.644c0.072,-1.004 0.108,-2.079 0.108,-3.226c0,-1.146 -0.018,-1.791 -0.054,-1.935c-4.945,0.466 -7.956,1.362 -9.031,2.688c-0.573,0.681 -0.86,1.469 -0.86,2.365c0,1.899 1.416,2.849 4.247,2.849c1.433,0 2.714,-0.331 3.843,-0.994c1.129,-0.663 1.711,-1.246 1.747,-1.747Z" style="fill:#4d4e4e;fill-rule:nonzero;"/><path d="M133.272,41.73c0.573,-0.072 1.003,-0.108 1.29,-0.108c2.293,0 3.44,1.111 3.44,3.333c0,1.29 -0.43,2.365 -1.29,3.225c-0.86,0.86 -1.935,1.29 -3.225,1.29c-0.681,0 -1.55,-0.349 -2.607,-1.048c-1.057,-0.699 -1.586,-1.729 -1.586,-3.091c0,-0.824 0.421,-1.576 1.263,-2.257c0.842,-0.681 1.747,-1.129 2.715,-1.344Z" style="fill:#39d5be;fill-rule:nonzero;"/><path d="M160.31,45.009c0.609,0 0.913,0.43 0.913,1.29c0,2.043 -2.651,3.064 -7.955,3.064c-2.258,0 -4.265,-0.358 -6.02,-1.075c-1.756,-0.717 -3.118,-1.649 -4.086,-2.795c-2.006,-2.365 -3.01,-4.999 -3.01,-7.902c0,-3.727 1.398,-6.746 4.193,-9.057c2.795,-2.312 6.271,-3.468 10.428,-3.468c4.157,0 6.235,0.592 6.235,1.774c0,0.825 -0.143,1.29 -0.43,1.398c-0.286,0.107 -0.501,0.161 -0.645,0.161l-0.967,0c-4.265,0 -7.579,0.618 -9.945,1.855c-2.365,1.236 -3.547,3.359 -3.547,6.369c0,3.011 0.905,5.295 2.714,6.854c1.81,1.559 4.345,2.338 7.606,2.338c0.753,0 1.613,-0.134 2.58,-0.403c0.968,-0.269 1.613,-0.403 1.936,-0.403Z" style="fill:#4d4e4e;fill-rule:nonzero;"/><path d="M164.61,46.084l1.935,0.215c1.433,0 2.723,-0.314 3.87,-0.941c1.147,-0.627 1.72,-1.532 1.72,-2.714c0,-0.43 -0.08,-0.887 -0.242,-1.371c-0.161,-0.484 -0.734,-1.182 -1.72,-2.096c-0.985,-0.914 -1.89,-1.962 -2.714,-3.145c-0.824,-1.182 -1.237,-2.508 -1.237,-3.978c0,-1.433 0.646,-2.938 1.936,-4.515c0.609,-0.752 1.523,-1.388 2.741,-1.908c1.218,-0.52 2.41,-0.78 3.575,-0.78c1.164,0 1.881,0.135 2.15,0.404c0.268,0.268 0.367,0.654 0.295,1.155l-0.43,1.559c-0.537,-0.143 -1.155,-0.215 -1.854,-0.215c-0.699,0 -1.425,0.278 -2.177,0.833c-0.753,0.556 -1.129,1.264 -1.129,2.124c0,0.86 0.323,1.729 0.968,2.607c0.645,0.878 1.361,1.639 2.15,2.284c0.788,0.645 1.505,1.523 2.15,2.634c0.645,1.111 0.967,2.311 0.967,3.602c0,2.472 -1.093,4.345 -3.279,5.617c-2.186,1.272 -4.784,1.908 -7.794,1.908c-0.788,0 -1.362,-0.152 -1.72,-0.457c-0.358,-0.305 -0.537,-0.788 -0.537,-1.451c0,-0.663 0.125,-1.12 0.376,-1.371Z" style="fill:#4d4e4e;fill-rule:nonzero;"/><path d="M181.058,46.084l1.935,0.215c1.434,0 2.724,-0.314 3.871,-0.941c1.146,-0.627 1.72,-1.532 1.72,-2.714c0,-0.43 -0.081,-0.887 -0.242,-1.371c-0.161,-0.484 -0.735,-1.182 -1.72,-2.096c-0.986,-0.914 -1.89,-1.962 -2.715,-3.145c-0.824,-1.182 -1.236,-2.508 -1.236,-3.978c0,-1.433 0.645,-2.938 1.935,-4.515c0.609,-0.752 1.523,-1.388 2.742,-1.908c1.218,-0.52 2.409,-0.78 3.574,-0.78c1.165,0 1.881,0.135 2.15,0.404c0.269,0.268 0.368,0.654 0.296,1.155l-0.43,1.559c-0.538,-0.143 -1.156,-0.215 -1.855,-0.215c-0.698,0 -1.424,0.278 -2.177,0.833c-0.752,0.556 -1.128,1.264 -1.128,2.124c0,0.86 0.322,1.729 0.967,2.607c0.645,0.878 1.362,1.639 2.15,2.284c0.789,0.645 1.505,1.523 2.15,2.634c0.645,1.111 0.968,2.311 0.968,3.602c0,2.472 -1.093,4.345 -3.279,5.617c-2.186,1.272 -4.784,1.908 -7.794,1.908c-0.789,0 -1.362,-0.152 -1.72,-0.457c-0.359,-0.305 -0.538,-0.788 -0.538,-1.451c0,-0.663 0.126,-1.12 0.376,-1.371Z" style="fill:#4d4e4e;fill-rule:nonzero;"/><path d="M7.421,45.818c-0.729,0.922 -0.587,2.259 0.32,3.008c0.27,0.226 0.552,0.459 0.824,0.684c0.909,0.75 2.252,0.635 3.02,-0.26c1.874,-2.123 5.052,-5.799 5.939,-7.336c0.416,-0.72 0.452,-2.216 0.418,-3.269c0.006,-0.311 -0.129,-0.609 -0.367,-0.811c-0.238,-0.201 -0.554,-0.284 -0.86,-0.227c-1.065,0.144 -2.576,0.435 -3.219,0.984c-1.352,1.155 -4.353,4.979 -6.075,7.227Z" style="fill:#39d5be;"/><path d="M8.779,28.806c-1.175,0.113 -2.041,1.15 -1.943,2.326c0.017,0.293 0.042,0.594 0.066,0.886c0.098,1.181 1.127,2.064 2.309,1.981c2.157,-0.1 5.333,-0.294 6.517,-0.651c0.616,-0.186 1.447,-1.178 1.983,-1.895c0.364,-0.427 0.319,-1.067 -0.1,-1.439c-0.649,-0.652 -1.646,-1.552 -2.295,-1.642c-1.228,-0.17 -4.394,0.166 -6.537,0.434Z" style="fill:#39d5be;"/><path d="M10.697,17.651c-1.126,-0.361 -2.333,0.253 -2.705,1.375c-0.091,0.25 -0.176,0.509 -0.26,0.761c-0.374,1.127 0.23,2.345 1.354,2.73c1.899,0.706 4.62,1.671 5.754,1.786c0.603,0.061 1.7,-0.527 2.436,-0.976c0.484,-0.253 0.687,-0.839 0.463,-1.336c-0.311,-0.83 -0.83,-2.016 -1.357,-2.339c-0.975,-0.597 -3.736,-1.445 -5.685,-2.001Z" style="fill:#39d5be;"/></g></svg>